<?xml version="1.0" encoding="UTF-8"?>
<svg width="100px" height="100px" viewBox="0 0 100 100" version="1.1" xmlns="http://www.w3.org/2000/svg" xmlns:xlink="http://www.w3.org/1999/xlink">
    <title>ico_wt8</title>
    <defs>
        <linearGradient x1="-24.6618646%" y1="11.1418349%" x2="62.7510879%" y2="64.2793885%" id="linearGradient-1">
            <stop stop-color="#E9E9ED" offset="0%"></stop>
            <stop stop-color="#DEDFE3" offset="100%"></stop>
        </linearGradient>
        <linearGradient x1="7.43326279%" y1="7.40639674%" x2="50.3952231%" y2="50.3810773%" id="linearGradient-2">
            <stop stop-color="#FFFFFF" offset="0%"></stop>
            <stop stop-color="#FFFFFF" stop-opacity="0" offset="100%"></stop>
        </linearGradient>
        <linearGradient x1="7.17318775%" y1="7.17318775%" x2="39.4297847%" y2="39.4297847%" id="linearGradient-3">
            <stop stop-color="#FFFFFF" offset="0%"></stop>
            <stop stop-color="#FFFFFF" stop-opacity="0" offset="100%"></stop>
        </linearGradient>
        <linearGradient x1="50%" y1="113.043478%" x2="50%" y2="-13.0434783%" id="linearGradient-4">
            <stop stop-color="#61ADFF" stop-opacity="0.6" offset="0%"></stop>
            <stop stop-color="#61ADFF" stop-opacity="0.6" offset="0%"></stop>
            <stop stop-color="#5DA9FF" stop-opacity="0.73" offset="11%"></stop>
            <stop stop-color="#5AA6FF" stop-opacity="0.83" offset="23%"></stop>
            <stop stop-color="#57A4FF" stop-opacity="0.9" offset="36%"></stop>
            <stop stop-color="#55A2FF" stop-opacity="0.96" offset="50%"></stop>
            <stop stop-color="#54A1FF" stop-opacity="0.99" offset="68%"></stop>
            <stop stop-color="#54A1FF" offset="100%"></stop>
        </linearGradient>
        <linearGradient x1="50%" y1="150%" x2="50%" y2="-50%" id="linearGradient-5">
            <stop stop-color="#61ADFF" offset="0%"></stop>
            <stop stop-color="#54A1FF" offset="100%"></stop>
        </linearGradient>
        <linearGradient x1="50%" y1="113.043478%" x2="50%" y2="-13.0434783%" id="linearGradient-6">
            <stop stop-color="#61ADFF" stop-opacity="0.6" offset="0%"></stop>
            <stop stop-color="#61ADFF" stop-opacity="0.6" offset="0%"></stop>
            <stop stop-color="#5DA9FF" stop-opacity="0.73" offset="11%"></stop>
            <stop stop-color="#5AA6FF" stop-opacity="0.83" offset="23%"></stop>
            <stop stop-color="#57A4FF" stop-opacity="0.9" offset="36%"></stop>
            <stop stop-color="#55A2FF" stop-opacity="0.96" offset="50%"></stop>
            <stop stop-color="#54A1FF" stop-opacity="0.99" offset="68%"></stop>
            <stop stop-color="#54A1FF" offset="100%"></stop>
        </linearGradient>
    </defs>
    <style type="text/css">
    <![CDATA[
        .cloud {
        -webkit-animation: cloud-anim 0.9s cubic-bezier(0.445, 0.05, 0.55, 0.95) alternate infinite;
        animation: cloud-anim 0.9s cubic-bezier(0.445, 0.05, 0.55, 0.95) alternate infinite;
        }
        @-webkit-keyframes cloud-anim {
        0% { -webkit-transform: translate(0px, 0px); }
        100% { -webkit-transform: translate(0px, -2px); }
        }
        @keyframes cloud-anim {
        0% { transform: translate(0px, 0px); }
        100% { transform: translate(0px, -2px); }
        }
        .rain0 {
        -webkit-animation: rain0-anim 1.8s linear infinite;
        animation: rain0-anim 1.8s linear infinite;
        }
        @-webkit-keyframes rain0-anim {
        0% { -webkit-transform: translate(0px, 0px); opacity: 0.5;}
        15% { opacity: 1; }
        65% { opacity: 1; }
        80% { -webkit-transform: translate(0px, 8px);  opacity: 0; }
        80.01% { -webkit-transform: translate(0px, -2.5px); opacity: 0; }
        100% { -webkit-transform: translate(0px, 0px); opacity: 0.5; }
        }
        @keyframes rain0-anim {
        0% { transform: translate(0px, 0px); opacity: 0.5;}
        15% { opacity: 1; }
        65% { opacity: 1; }
        80% { transform: translate(0px, 8px);  opacity: 0; }
        80.01% { transform: translate(0px, -2.5px); opacity: 0; }
        100% { transform: translate(0px, 0px); opacity: 0.5; }
        }
        .rain1 {
        -webkit-animation: rain1-anim 1.8s linear infinite;
        animation: rain1-anim 1.8s linear infinite;
        }
        @-webkit-keyframes rain1-anim {
        0% { opacity: 0; }
        5% { -webkit-transform: translate(0px, -9px); opacity: 0; }
        35% { opacity: 1; }
        70% { opacity: 1; }
        90% { -webkit-transform: translate(0px, 0px); opacity: 0; }
        100% { opacity: 0; }
        }
        @keyframes rain1-anim {
        0% { opacity: 0; }
        5% { -webkit-transform: translate(0px, -9px); opacity: 0; }
        35% { opacity: 1; }
        70% { opacity: 1; }
        90% { -webkit-transform: translate(0px, 0px); opacity: 0; }
        100% { opacity: 0; }
        }
        .rain2 {
        -webkit-animation: rain2-anim 1.8s linear infinite;
        animation: rain2-anim 1.8s linear infinite;
        }
        @-webkit-keyframes rain2-anim {
        0% { -webkit-transform: translate(0px, -3px); opacity: 0.8; }
        5% { opacity: 1; }
        50% { -webkit-transform: translate(0px, 3px);  opacity: 0; }
        50.01% { -webkit-transform: translate(0px, -9px); opacity: 0; }
        70% { opacity: 1; }
        80% { opacity: 1; }
        100% { -webkit-transform: translate(0px, -3px); opacity: 0.8; }
        }
        @keyframes rain2-anim {
        0% { transform: translate(0px, -3px); opacity: 0.8; }
        5% { opacity: 1; }
        50% { transform: translate(0px, 3px);  opacity: 0; }
        50.01% { transform: translate(0px, -9px); opacity: 0; }
        70% { opacity: 1; }
        80% { opacity: 1; }
        100% { transform: translate(0px, -3px); opacity: 0.8; }
        }
        .rain3 {
        -webkit-animation: rain3-anim 1.8s linear infinite;
        animation: rain3-anim 1.8s linear infinite;
        }
        @-webkit-keyframes rain3-anim {
        0% { -webkit-transform: translate(0px, -3px); opacity: 0.2; }
        35% { opacity: 1; }
        70% { opacity: 1; }
        85% { -webkit-transform: translate(0px, 3px); opacity: 0; }
        85.01% { -webkit-transform: translate(0px, -4.5px); }
        100% { -webkit-transform: translate(0px, -3px); opacity: 0.2; }
        }
        @keyframes rain3-anim {
        0% { transform: translate(0px, -3px); opacity: 0.2; }
        35% { opacity: 1; }
        70% { opacity: 1; }
        85% { transform: translate(0px, 3px); opacity: 0; }
        85.01% { transform: translate(0px, -4.5px); }
        100% { transform: translate(0px, -3px); opacity: 0.2; }
        }
    ]]>
  </style>
    <g id="Page-1" stroke="none" stroke-width="1" fill="none" fill-rule="evenodd">
        <g id="ico_wt8" fill-rule="nonzero">
            <g>
                <g class="cloud">
                    <path d="M69.6306818,26.4204545 L69.4261364,26.4204545 C65.6553386,17.4599388 56.5204674,11.9687841 46.8381856,12.8423832 C37.1559037,13.7159823 29.151457,20.7535589 27.0454545,30.2443182 C17.9500903,31.0229503 11.1296613,38.904111 11.6647727,48.0170455 C12.1761364,56.9886364 19.8352273,63.8863636 28.8238636,63.8863636 L69.6306818,63.8863636 C76.5139526,64.1800676 83.0038557,60.6752131 86.5330826,54.7582683 C90.0623095,48.8413234 90.0623095,41.4654948 86.5330826,35.5485499 C83.0038557,29.6316051 76.5139526,26.1267506 69.6306818,26.4204545 Z" id="Path" fill="url(#linearGradient-1)"></path>
                    <path d="M69.6306818,26.4204545 L69.4261364,26.4204545 C65.6553386,17.4599388 56.5204674,11.9687841 46.8381856,12.8423832 C37.1559037,13.7159823 29.151457,20.7535589 27.0454545,30.2443182 C17.9500903,31.0229503 11.1296613,38.904111 11.6647727,48.0170455 C12.1761364,56.9886364 19.8352273,63.8863636 28.8238636,63.8863636 L69.6306818,63.8863636 C76.5139526,64.1800676 83.0038557,60.6752131 86.5330826,54.7582683 C90.0623095,48.8413234 90.0623095,41.4654948 86.5330826,35.5485499 C83.0038557,29.6316051 76.5139526,26.1267506 69.6306818,26.4204545 Z" id="Path" fill="#A3A5AA" opacity="0.05"></path>
                    <path d="M71.1590917,35.0738636 C71.1590917,44.1056073 65.7169699,52.2474896 57.3716254,55.7011283 C49.026281,59.1547671 39.4221643,57.2396193 33.0398246,50.8491472 C26.6574849,44.4586751 24.7545686,34.8521274 28.2188315,26.5111876 C31.6830943,18.1702478 39.8319,12.7385063 48.8636364,12.7499818 C61.1829701,12.7625448 71.1622336,22.7545239 71.1590917,35.0738636 Z" id="Path" fill="url(#linearGradient-2)" opacity="0.35"></path>
                    <circle id="Oval" fill="url(#linearGradient-3)" opacity="0.25" cx="69.6306818" cy="45.1534091" r="18.7329545"></circle>
                </g>
                <g class="rain0">
                    <path d="M38.9045455,52.9545455 C39.8123187,52.9545455 40.5543528,53.6641591 40.6061973,54.5589359 L40.6090909,54.6590909 L40.6090909,64.7272727 C40.6090909,65.6686672 39.8459399,66.4318182 38.9045455,66.4318182 C37.9967722,66.4318182 37.2547381,65.7222046 37.2028936,64.8274277 L37.2,64.7272727 L37.2,54.6590909 C37.2,53.7176964 37.963151,52.9545455 38.9045455,52.9545455 Z" id="Path" fill="url(#linearGradient-4)"></path>
                    <path d="M38.9045455,68.2727273 C39.8123187,68.2727273 40.5543528,68.9823409 40.6061973,69.8771177 L40.6090909,69.9772727 L40.6090909,73.3863636 C40.6090909,74.3277581 39.8459399,75.0909091 38.9045455,75.0909091 C37.9967722,75.0909091 37.2547381,74.3812955 37.2028936,73.4865186 L37.2,73.3863636 L37.2,69.9772727 C37.2,69.0358783 37.963151,68.2727273 38.9045455,68.2727273 Z" id="Path" fill="url(#linearGradient-5)"></path>
                </g>
                <path class="rain1" d="M47.3845455,67.2727273 C48.2923187,67.2727273 49.0343528,67.9823409 49.0861973,68.8771177 L49.0890909,68.9772727 L49.0890909,72.3863636 C49.0890909,73.3277581 48.3259399,74.0909091 47.3845455,74.0909091 C46.4767722,74.0909091 45.7347381,73.3812955 45.6828936,72.4865186 L45.68,72.3863636 L45.68,68.9772727 C45.68,68.0358783 46.443151,67.2727273 47.3845455,67.2727273 Z" id="Path" fill="url(#linearGradient-5)"></path>
                <g class="rain2">
                    <path d="M55.8645455,54.9545455 C56.7723187,54.9545455 57.5143528,55.6641591 57.5661973,56.5589359 L57.5690909,56.6590909 L57.5690909,69.7272727 C57.5690909,70.6686672 56.8059399,71.4318182 55.8645455,71.4318182 C54.9567722,71.4318182 54.2147381,70.7222046 54.1628936,69.8274277 L54.16,69.7272727 L54.16,56.6590909 C54.16,55.7176964 54.923151,54.9545455 55.8645455,54.9545455 Z" id="Path" fill="url(#linearGradient-6)"></path>
                    <path d="M55.8645455,73.2727273 C56.7723187,73.2727273 57.5143528,73.9823409 57.5661973,74.8771177 L57.5690909,74.9772727 L57.5690909,78.3863636 C57.5690909,79.3277581 56.8059399,80.0909091 55.8645455,80.0909091 C54.9567722,80.0909091 54.2147381,79.3812955 54.1628936,78.4865186 L54.16,78.3863636 L54.16,74.9772727 C54.16,74.0358783 54.923151,73.2727273 55.8645455,73.2727273 Z" id="Path" fill="url(#linearGradient-5)"></path>
                </g>
                <path class="rain3" d="M64.3445455,65.2727273 C65.2523187,65.2727273 65.9943528,65.9823409 66.0461973,66.8771177 L66.0490909,66.9772727 L66.0490909,70.3863636 C66.0490909,71.3277581 65.2859399,72.0909091 64.3445455,72.0909091 C63.4367722,72.0909091 62.6947381,71.3812955 62.6428936,70.4865186 L62.64,70.3863636 L62.64,66.9772727 C62.64,66.0358783 63.403151,65.2727273 64.3445455,65.2727273 Z" id="Path" fill="url(#linearGradient-5)"></path>
            </g>
        </g>
    </g>
</svg>